<svg width="61" height="60" viewBox="0 0 61 60" fill="none" xmlns="http://www.w3.org/2000/svg">
<rect x="27.3281" y="12.94" width="17.12" height="41.12" rx="1.06" fill="white" stroke="#B8C0CC" stroke-width="1.88"/>
<rect x="30.3881" y="17" width="4.58861" height="4.58861" rx="1" fill="#EAEFF4"/>
<rect x="30.3881" y="26" width="4.58861" height="4.58861" rx="1" fill="#EAEFF4"/>
<rect x="30.3881" y="35" width="4.58861" height="4.58861" rx="1" fill="#EAEFF4"/>
<rect x="30.3881" y="44" width="4.58861" height="4.58861" rx="1" fill="#EAEFF4"/>
<rect x="36.1812" y="17" width="4.58861" height="4.58861" rx="1" fill="#EAEFF4"/>
<rect x="36.1812" y="26" width="4.58861" height="4.58861" rx="1" fill="#EAEFF4"/>
<rect x="36.1812" y="35" width="4.58861" height="4.58861" rx="1" fill="#EAEFF4"/>
<rect x="36.1812" y="44" width="4.58861" height="4.58861" rx="1" fill="#EAEFF4"/>
<rect x="17.3881" y="33" width="14" height="21" rx="1" fill="white" stroke="#B8C0CC" stroke-width="1.88"/>
<rect x="20.3881" y="47" width="3" height="3" rx="0.7" fill="#EAEFF4"/>
<rect x="20.3881" y="42" width="3" height="3" rx="0.7" fill="#EAEFF4"/>
<rect x="20.3881" y="37" width="3" height="3" rx="0.7" fill="#EAEFF4"/>
<rect x="25.3881" y="47" width="3" height="3" rx="0.7" fill="#EAEFF4"/>
<rect x="25.3881" y="42" width="3" height="3" rx="0.7" fill="#EAEFF4"/>
<rect x="25.3881" y="37" width="3" height="3" rx="0.7" fill="#EAEFF4"/>
</svg>
